<?xml version="1.0" encoding="iso-8859-1"?>
<!-- Uploaded to: SVG Repo, www.svgrepo.com, Generator: SVG Repo Mixer Tools -->
<svg fill="#000000" version="1.1" id="Layer_1" xmlns="http://www.w3.org/2000/svg" xmlns:xlink="http://www.w3.org/1999/xlink" 
	 viewBox="0 0 512 512" xml:space="preserve">
<g>
	<g>
		<g>
			<path d="M332.069,80.073c-21.948,0-39.803,17.856-39.803,39.803c0,21.948,17.856,39.804,39.803,39.804
				c21.948,0,39.804-17.856,39.804-39.804C371.874,97.929,354.017,80.073,332.069,80.073z M324.294,142.846
				c-9.57-3.249-16.479-12.314-16.479-22.969c0-10.654,6.909-19.72,16.479-22.968V142.846z M339.844,142.846V96.907
				c9.571,3.249,16.48,12.314,16.48,22.969C356.325,130.532,349.416,139.597,339.844,142.846z"/>
			<rect x="195.942" y="104.097" width="40.036" height="15.549"/>
			<rect x="219.97" y="128.115" width="16.014" height="15.549"/>
			<path d="M240.136,0h-72.365c-15.242,0-27.643,12.4-27.643,27.642v304.576c0,15.242,12.401,27.642,27.643,27.642
				c6.834,0,12.394,5.559,12.394,12.394v115.956c0,13.117,10.672,23.789,23.788,23.789c13.117,0,23.789-10.672,23.789-23.789
				V372.255c0-6.833,5.559-12.394,12.393-12.394c15.242,0,27.643-12.4,27.643-27.642V27.642C267.779,12.4,255.378,0,240.136,0z
				 M155.676,27.642c0-6.669,5.425-12.093,12.094-12.093h72.365c6.67,0,12.094,5.425,12.094,12.093v12.394h-96.553V27.642z
				 M155.676,55.585h96.553v16.48h-96.553V55.585z M155.676,87.615h96.553V264.24h-96.553V87.615z M155.676,279.789h96.553v16.48
				h-96.553V279.789z M212.193,456.415h-16.479v-72.531h16.479V456.415z M212.194,488.211c0,4.544-3.697,8.24-8.24,8.24
				c-4.543,0-8.239-3.697-8.239-8.24v-16.247h16.479V488.211z M252.231,332.219h-0.001c0,6.669-5.425,12.093-12.094,12.093
				c-14.076,0-25.748,10.465-27.661,24.021h-17.041c-1.913-13.557-13.586-24.021-27.662-24.021c-6.67,0-12.094-5.425-12.094-12.093
				v-20.401h96.553V332.219z"/>
		</g>
	</g>
</g>
</svg>